<mxfile host="app.diagrams.net" modified="2023-06-15T06:11:19.778Z" agent="Mozilla/5.0 (X11; Linux x86_64) AppleWebKit/537.36 (KHTML, like Gecko) Chrome/114.0.0.0 Safari/537.36" version="21.4.0" etag="QXtwGtk0rApaBoKCuR2L" type="github">
  <diagram name="Page-1" id="ejGGedyJX8Pb92ip49R1">
    <mxGraphModel>
      <root>
        <mxCell id="0" />
        <mxCell id="1" parent="0" />
      </root>
    </mxGraphModel>
  </diagram>
</mxfile>
